<svg xmlns="http://www.w3.org/2000/svg" width="14.965" height="15.999" fill="none" viewBox="0 0 14.966 15.999"><path fill="#F4AA41" d="M13.81 11.88c-1.01 2.49-3.53 4.11-6.48 4.11-2.55 0-5.38-1.57-6.38-4.06l-.04-.09C.59 11.06.64 10.1.64 9.21L1.67.35l2.85 2.76c.85-.35 1.74-.53 2.66-.53h.3c.94 0 1.83.19 2.65.53L13.26.08l1.04 9.27c.01.87-.16 1.71-.49 2.53"/><path fill="#E27022" d="M7.33 15.99c2.96.09 5.68-1.61 6.68-4.1l.03-.07c.32-.78.27-1.88.27-2.78L13.27.35z"/><path fill="#EA5A47" d="M6.76 13.2c1.19.76 2.67-.15 2.88-1.01l.31-.26s-1.32.98-2.23-.29c.06 1.1-.45 1.4-.96 1.56"/><path fill="#FFF" d="M12.81 7.72s-3.88 1.61-3.7 1.81c3.72 3.31 4.01-1.35 3.7-1.81m-10.67 0s3.6 1.89 3.7 1.81c-3.58 3.48-4.06-1.06-3.7-1.81"/><path fill="none" d="M6.76 13.19c1.19.77 2.67-.14 2.88-1l.31-.27s-1.32.99-2.23-.28c.06 1.09-.45 1.39-.96 1.55m6.05-5.48s-3.88 1.61-3.7 1.81c3.72 3.32 4.01-1.35 3.7-1.81m-5.87 3.8-.02.02a.21.21 0 0 1-.22-.22c0-.12.09-.22.22-.22l.02.02zm1.68-.4.02-.02c.12 0 .22.1.22.22 0 .13-.1.22-.22.22l-.02-.02zm6.2 2.01.02-.01c.11.06.15.19.09.3s-.19.15-.3.09l-.01-.03zm-2.78-1.05-.02.01a.23.23 0 0 1-.09-.31c.06-.11.19-.14.3-.09l.01.03zm1.61 2.47.03-.01c.11.06.15.19.09.3s-.19.15-.3.09l-.01-.03zm-2.77-1.05-.02.01a.22.22 0 0 1-.09-.3c.06-.11.19-.15.3-.09l.01.02z"/><path stroke="#000" stroke-linecap="round" stroke-linejoin="round" stroke-width=".445" d="M6.92 11.31h1.72m1 .88.31-.27s-1.32.99-2.23-.28c.06 1.09-.45 1.39-.96 1.55 1.19.77 2.67-.14 2.88-1m5.1 1.11-2.62-1.42m1.46 2.84-2.62-1.42M9.11 9.52c3.72 3.32 4.01-1.35 3.7-1.81 0 0-3.88 1.61-3.7 1.81"/><path fill="none" d="m1.32 11.53.02.01c.05.12 0 .25-.12.29-.11.05-.24 0-.29-.12l.01-.02zm12.69.16.01.02c-.04.12-.17.17-.29.12-.11-.05-.17-.17-.12-.29l.03-.01zm-10.3 3.22-.03.01c-.1-.06-.14-.2-.07-.31.06-.1.2-.13.31-.07v.03zm7.32-.34.01-.03c.11-.06.24-.03.31.07.06.11.03.25-.08.31l-.02-.01z"/><path stroke="#000" stroke-linecap="round" stroke-linejoin="round" stroke-width=".445" d="M1.14 11.63c-.33-.79-.49-1.61-.49-2.45L1.67.22l3.07 2.93c.83-.34 1.69-.52 2.59-.51h.29c.92 0 1.8.18 2.6.51L13.29.22l1.01 8.96c0 .86-.17 1.69-.48 2.45M3.8 14.73c1.08.66 2.26.99 3.53.99h.29c1.3 0 2.51-.36 3.54-.99"/><path fill="none" d="M2.14 7.71s3.6 1.89 3.7 1.81c-3.58 3.49-4.06-1.05-3.7-1.81M.33 13.47l-.01.03c-.1.06-.24.02-.3-.09a.22.22 0 0 1 .09-.3l.03.01zm2.39-1.76.01-.03c.1-.05.24-.02.3.09s.02.25-.09.31l-.03-.01zm-1.23 3.18v.03a.23.23 0 0 1-.31-.09c-.05-.11-.02-.24.09-.3l.03.01zm2.39-1.76.01-.02c.11-.06.24-.02.3.09s.02.24-.09.3l-.03-.01z"/><path stroke="#000" stroke-linecap="round" stroke-linejoin="round" stroke-width=".445" d="m.22 13.3 2.61-1.42m-1.45 2.84 2.61-1.42m1.85-3.78c-3.58 3.49-4.06-1.05-3.7-1.81 0 0 3.6 1.89 3.7 1.81"/><path fill="#000" d="M3.99 9.6c.39 0 .58-.18.58-.56s-.19-.57-.58-.57c-.38 0-.58.19-.58.57s.2.56.58.56m6.97 0c.39 0 .58-.18.58-.56s-.19-.57-.58-.57c-.38 0-.58.19-.58.57s.2.56.58.56"/></svg>